<svg
  xmlns="http://www.w3.org/2000/svg" 
  xmlns:xlink="http://www.w3.org/1999/xlink"
  width="430" height="570"
  style="background-color:#00000000; color:black;" >
                                            <defs id="canvasGridDefs">
                                                <pattern id="smallGrid" width="5" height="5" patternUnits="userSpaceOnUse">
                                                    <path id="smallGridPath" d="M 5 0 L 0 0 0 5" fill="none" stroke="lightgray" stroke-width="0.5"></path>
                                                </pattern>
                                            </defs>
                                            <rect id="canvasGrid" width="100%" height="100%" fill="white"></rect>
                                            <rect id="shapeSelectGrid" width="0" height="0" x="0" y="0" fill="gray" stroke="gray" fill-opacity="0.2" stroke-width="1"></rect>
                                            <rect id="bordersquare132b2984-555c-4da8-b676-a023f075c6a9" x="110" y="50" height="470" width="220" rx="0" ry="0" fill="white" fill-opacity="1" stroke-opacity="1" stroke="black"></rect><text id="bordersquare132b2984-555c-4da8-b676-a023f075c6a9Text" x="110" y="275.888888835907" fill="black" font-size="12" font-family="Arial" font-weight="normal" text-anchor="middle"><tspan x="220" dy="14.222222328186035"> </tspan></text><rect id="cdbd085a-bde0-4f9f-9535-39746352a680" x="105" y="45" height="480" width="230" stroke-width="1" stroke-dasharray="3,1" fill="none" stroke="none"></rect><rect id="activity775f8516-cab8-41fc-a0d9-deb3295cd9c9" x="130" y="140" height="310" width="180" rx="10" ry="10" fill="white" fill-opacity="1" stroke-opacity="1" stroke="black"></rect><text id="activity775f8516-cab8-41fc-a0d9-deb3295cd9c9Text" x="130" y="285.888888835907" fill="black" font-size="12" font-family="Arial" font-weight="normal" text-anchor="middle"><tspan x="220" dy="14.222222328186035"> </tspan></text><rect id="1e1a7200-b4ec-4fcc-afac-8fd2603f8edd" x="125" y="135" height="320" width="190" stroke-width="1" stroke-dasharray="3,1" fill="none" stroke="none"></rect><circle id="selectionMarker" cx="0" cy="0" r="50" fill="darkslateblue" stroke="darkslateblue" fill-opacity="0.2" stroke-width="0" style="display: none;"></circle>
                                        <ellipse id="actstart2c761c0b-17b9-4662-abad-e2a4d06c26d7" cx="45" cy="35" rx="15" ry="15" fill="black" fill-opacity="1" stroke-opacity="1" stroke="black"></ellipse><text id="actstart2c761c0b-17b9-4662-abad-e2a4d06c26d7Text" x="30" y="25.888888835906982" fill="black" font-size="12" font-family="Arial" font-weight="normal" text-anchor="middle"><tspan x="45" dy="14.222222328186035"> </tspan></text><rect id="b3ac01f4-9644-4596-881f-5720cb1c0b8d" x="25" y="15" height="40" width="40" stroke-width="1" stroke-dasharray="3,1" fill="none" stroke="none"></rect><ellipse id="usecase35c53bfd-54c7-4971-bd79-ae82afd864d9" cx="220" cy="80" rx="50" ry="20" fill="white" fill-opacity="1" stroke-opacity="1" stroke="black"></ellipse><text id="usecase35c53bfd-54c7-4971-bd79-ae82afd864d9Text" x="170" y="70.88888883590698" fill="black" font-size="12" font-family="Arial" font-weight="normal" text-anchor="middle"><tspan x="220" dy="14.222222328186035">Login </tspan></text><rect id="caf0dc20-f21b-4d93-976d-dc933f0ba18e" x="165" y="55" height="60" width="110" stroke-width="1" stroke-dasharray="3,1" fill="none" stroke="none"></rect><path id="actoree8a9f53-1d14-45b3-8670-d3614ec69207" d="M 40 220 m 0 15 a 15 15  0 0  1   30 0 m -30 0 a 15 15  0 0  0   30 0 m -15 15 l 0 30 m -15 -15 l 30 0 m -15 15 l -15 24 m 15 -24 l 15 24 " fill="white" fill-opacity="1" stroke-opacity="1" stroke="black" fill-rule="nonzero"></path><text id="actoree8a9f53-1d14-45b3-8670-d3614ec69207Text" x="40" y="250.88888883590698" fill="black" font-size="12" font-family="Arial" font-weight="normal" text-anchor="middle"><tspan x="55" dy="14.222222328186035"> </tspan></text><rect id="4ac43fde-bf58-49a2-b1b1-24f596449e0d" x="35" y="215" height="90" width="40" stroke-width="1" stroke-dasharray="3,1" fill="none" stroke="none"></rect><path id="actorb508a033-b6d0-4ed4-ae31-c43264cffed0" d="M 40 320 m 0 15 a 15 15  0 0  1   30 0 m -30 0 a 15 15  0 0  0   30 0 m -15 15 l 0 30 m -15 -15 l 30 0 m -15 15 l -15 24 m 15 -24 l 15 24 " fill="white" fill-opacity="1" stroke-opacity="1" stroke="black" fill-rule="nonzero"></path><text id="actorb508a033-b6d0-4ed4-ae31-c43264cffed0Text" x="40" y="350.888888835907" fill="black" font-size="12" font-family="Arial" font-weight="normal" text-anchor="middle"><tspan x="55" dy="14.222222328186035"> </tspan></text><rect id="2864bd91-febb-423b-9fd7-e73b189dcf87" x="35" y="315" height="90" width="40" stroke-width="1" stroke-dasharray="3,1" fill="none" stroke="none"></rect><path id="actor56b66cfb-af5d-4b5a-9c57-2942395b24cd" d="M 40 120 m 0 15 a 15 15  0 0  1   30 0 m -30 0 a 15 15  0 0  0   30 0 m -15 15 l 0 30 m -15 -15 l 30 0 m -15 15 l -15 24 m 15 -24 l 15 24 " fill="white" fill-opacity="1" stroke-opacity="1" stroke="black" fill-rule="nonzero"></path><text id="actor56b66cfb-af5d-4b5a-9c57-2942395b24cdText" x="40" y="150.88888883590698" fill="black" font-size="12" font-family="Arial" font-weight="normal" text-anchor="middle"><tspan x="55" dy="14.222222328186035"> </tspan></text><rect id="c61648df-4a4f-4c0b-bfc9-ff51ec1302f2" x="35" y="115" height="90" width="40" stroke-width="1" stroke-dasharray="3,1" fill="none" stroke="none"></rect><path id="actor6b21fdc5-6bc9-4561-9d14-da9b0e62bef4" d="M 360 60 m 0 15 a 15 15  0 0  1   30 0 m -30 0 a 15 15  0 0  0   30 0 m -15 15 l 0 30 m -15 -15 l 30 0 m -15 15 l -15 24 m 15 -24 l 15 24 " fill="white" fill-opacity="1" stroke-opacity="1" stroke="black" fill-rule="nonzero"></path><text id="actor6b21fdc5-6bc9-4561-9d14-da9b0e62bef4Text" x="360" y="90.88888883590698" fill="black" font-size="12" font-family="Arial" font-weight="normal" text-anchor="middle"><tspan x="375" dy="14.222222328186035"> </tspan></text><rect id="90b3f492-54b2-4095-8560-19b89ec7e738" x="355" y="55" height="90" width="40" stroke-width="1" stroke-dasharray="3,1" fill="none" stroke="none"></rect><path id="actord2f8d0dd-a63d-41df-a6c9-eb0705654b8e" d="M 360 160 m 0 15 a 15 15  0 0  1   30 0 m -30 0 a 15 15  0 0  0   30 0 m -15 15 l 0 30 m -15 -15 l 30 0 m -15 15 l -15 24 m 15 -24 l 15 24 " fill="white" fill-opacity="1" stroke-opacity="1" stroke="black" fill-rule="nonzero"></path><text id="actord2f8d0dd-a63d-41df-a6c9-eb0705654b8eText" x="360" y="190.88888883590698" fill="black" font-size="12" font-family="Arial" font-weight="normal" text-anchor="middle"><tspan x="375" dy="14.222222328186035"> </tspan></text><rect id="db9b9603-b3e7-4050-bbb1-5e69f9e48dcd" x="355" y="155" height="90" width="40" stroke-width="1" stroke-dasharray="3,1" fill="none" stroke="none"></rect><path id="actorefc844dc-7a51-4bcf-bd46-0b2ff19dd6d3" d="M 360 260 m 0 15 a 15 15  0 0  1   30 0 m -30 0 a 15 15  0 0  0   30 0 m -15 15 l 0 30 m -15 -15 l 30 0 m -15 15 l -15 24 m 15 -24 l 15 24 " fill="white" fill-opacity="1" stroke-opacity="1" stroke="black" fill-rule="nonzero"></path><text id="actorefc844dc-7a51-4bcf-bd46-0b2ff19dd6d3Text" x="360" y="290.888888835907" fill="black" font-size="12" font-family="Arial" font-weight="normal" text-anchor="middle"><tspan x="375" dy="14.222222328186035"> </tspan></text><rect id="65872da6-40fc-4923-8b9e-0c7f5ed05933" x="355" y="255" height="90" width="40" stroke-width="1" stroke-dasharray="3,1" fill="none" stroke="none"></rect><path id="actore1cd6d1e-8b0d-410c-8cd2-99049409e377" d="M 360 365 m 0 15 a 15 15  0 0  1   30 0 m -30 0 a 15 15  0 0  0   30 0 m -15 15 l 0 30 m -15 -15 l 30 0 m -15 15 l -15 24 m 15 -24 l 15 24 " fill="white" fill-opacity="1" stroke-opacity="1" stroke="black" fill-rule="nonzero"></path><text id="actore1cd6d1e-8b0d-410c-8cd2-99049409e377Text" x="360" y="395.888888835907" fill="black" font-size="12" font-family="Arial" font-weight="normal" text-anchor="middle"><tspan x="375" dy="14.222222328186035"> </tspan></text><rect id="0954a96c-d01f-4d05-95f4-cefb9c53b415" x="355" y="360" height="90" width="40" stroke-width="1" stroke-dasharray="3,1" fill="none" stroke="none"></rect><ellipse id="usecasea9fa9962-00ba-4d62-a97f-77fc05a0d730" cx="220" cy="415" rx="50" ry="25" fill="white" fill-opacity="1" stroke-opacity="1" stroke="black"></ellipse><text id="usecasea9fa9962-00ba-4d62-a97f-77fc05a0d730Text" x="170" y="405.888888835907" fill="black" font-size="12" font-family="Arial" font-weight="normal" text-anchor="middle"><tspan x="220" dy="14.222222328186035">Visual output </tspan></text><rect id="aa6cb1d1-47d0-401e-a9c7-de3485e552d9" x="165" y="385" height="60" width="110" stroke-width="1" stroke-dasharray="3,1" fill="none" stroke="none"></rect><ellipse id="usecase46421ac0-8734-4f80-9281-3722196b3105" cx="220" cy="175" rx="50" ry="25" fill="white" fill-opacity="1" stroke-opacity="1" stroke="black"></ellipse><text id="usecase46421ac0-8734-4f80-9281-3722196b3105Text" x="170" y="165.88888883590698" fill="black" font-size="12" font-family="Arial" font-weight="normal" text-anchor="middle"><tspan x="220" dy="14.222222328186035">Voice input </tspan></text><rect id="f3cd1a3a-bb36-4a67-9a92-f5adae7a1df4" x="165" y="145" height="60" width="110" stroke-width="1" stroke-dasharray="3,1" fill="none" stroke="none"></rect><ellipse id="usecasef4adcf31-fcb3-48a4-8486-42c2f6285bb2" cx="220" cy="235" rx="50" ry="25" fill="white" fill-opacity="1" stroke-opacity="1" stroke="black"></ellipse><text id="usecasef4adcf31-fcb3-48a4-8486-42c2f6285bb2Text" x="170" y="225.88888883590698" fill="black" font-size="12" font-family="Arial" font-weight="normal" text-anchor="middle"><tspan x="220" dy="14.222222328186035">Voice output </tspan></text><rect id="c6d1048b-c684-4104-87bc-202135af616c" x="165" y="205" height="60" width="110" stroke-width="1" stroke-dasharray="3,1" fill="none" stroke="none"></rect><ellipse id="usecaseccf76741-7f66-46ff-bfc9-436be9b8fbbb" cx="220" cy="355" rx="50" ry="25" fill="white" fill-opacity="1" stroke-opacity="1" stroke="black"></ellipse><text id="usecaseccf76741-7f66-46ff-bfc9-436be9b8fbbbText" x="170" y="345.888888835907" fill="black" font-size="12" font-family="Arial" font-weight="normal" text-anchor="middle"><tspan x="220" dy="14.222222328186035">Code Generation </tspan></text><rect id="ac54c28d-0e83-4840-ac1b-14d3753842ea" x="165" y="325" height="60" width="110" stroke-width="1" stroke-dasharray="3,1" fill="none" stroke="none"></rect><ellipse id="usecasef37e2b10-721b-4099-a2f8-283afd3085a0" cx="220" cy="295" rx="50" ry="25" fill="white" fill-opacity="1" stroke-opacity="1" stroke="black"></ellipse><text id="usecasef37e2b10-721b-4099-a2f8-283afd3085a0Text" x="170" y="285.888888835907" fill="black" font-size="12" font-family="Arial" font-weight="normal" text-anchor="middle"><tspan x="220" dy="14.222222328186035">Code Prediction </tspan></text><rect id="a7f7088e-c59e-498c-8f69-d67f299bbee8" x="165" y="265" height="60" width="110" stroke-width="1" stroke-dasharray="3,1" fill="none" stroke="none"></rect><ellipse id="usecased5252bfe-6a1a-4860-a9fb-eeccdfe14e95" cx="220" cy="485" rx="50" ry="25" fill="white" fill-opacity="1" stroke-opacity="1" stroke="black"></ellipse><text id="usecased5252bfe-6a1a-4860-a9fb-eeccdfe14e95Text" x="170" y="475.888888835907" fill="black" font-size="12" font-family="Arial" font-weight="normal" text-anchor="middle"><tspan x="220" dy="14.222222328186035">Logout </tspan></text><rect id="edd1f9bf-9593-476a-8f32-d9b7d73413e1" x="165" y="455" height="60" width="110" stroke-width="1" stroke-dasharray="3,1" fill="none" stroke="none"></rect><path id="actorc90ab996-c6ef-422e-b248-ef8fef4497e4" d="M 40 430 m 0 15 a 15 15  0 0  1   30 0 m -30 0 a 15 15  0 0  0   30 0 m -15 15 l 0 30 m -15 -15 l 30 0 m -15 15 l -15 24 m 15 -24 l 15 24 " fill="white" fill-opacity="1" stroke-opacity="1" stroke="black" fill-rule="nonzero"></path><text id="actorc90ab996-c6ef-422e-b248-ef8fef4497e4Text" x="40" y="520" fill="black" font-size="12" font-family="Arial" font-weight="normal" text-anchor="middle"><tspan x="55" dy="14.222222328186035"> </tspan></text><rect id="1209a3a3-f345-4617-a985-3aa22fc29bb9" x="35" y="425" height="90" width="40" stroke-width="1" stroke-dasharray="3,1" fill="none" stroke="none"></rect><path id="actend5386cc6b-c615-4436-ab33-36981574ab4f" d="M 380, 530 m -18, 0 a 18,18 0 1,0 36,0 a 18,18 0 1,0 -36,0 M 380, 530 m -20, 0 a 20,20 0 1,0 40,0 a 20,20 0 1,0 -40,0 M 380, 530 m -15, 0 a 15,15 0 1,0 30,0 a 15,15 0 1,0 -30,0" fill="black" fill-opacity="1" stroke-opacity="1" stroke="black" fill-rule="evenodd"></path><text id="actend5386cc6b-c615-4436-ab33-36981574ab4fText" x="360" y="560" fill="black" font-size="12" font-family="Arial" font-weight="normal" text-anchor="middle"><tspan x="380" dy="14.222222328186035"> </tspan></text><rect id="b578e9b7-3fee-4926-8362-a5da3670b304" x="355" y="505" height="50" width="50" stroke-width="1" stroke-dasharray="3,1" fill="none" stroke="none"></rect><path id="line46449d6f-349d-4f23-8875-151b51715e1d" d="M 70 160 Q 90 160 120 120 Q 150 80 170 80" x1="70" y1="160" x2="170" y2="85" fill="none" stroke="black" stroke-width="1"></path><path id="line46449d6f-349d-4f23-8875-151b51715e1dback" d="M 70 160 Q 90 160 120 120 Q 150 80 170 80" x1="70" y1="160" x2="170" y2="85" fill="none" stroke="gray" stroke-width="15" opacity="0"></path><path id="line65bee85b-8e6f-4c95-a0d1-ac36e9b2345f" d="M 270 80 Q 290 80 315 90 Q 340 100 360 100" x1="270" y1="85" x2="360" y2="100" fill="none" stroke="black" stroke-width="1"></path><path id="line65bee85b-8e6f-4c95-a0d1-ac36e9b2345fback" d="M 270 80 Q 290 80 315 90 Q 340 100 360 100" x1="270" y1="85" x2="360" y2="100" fill="none" stroke="gray" stroke-width="15" opacity="0"></path><path id="lineca7ce3d3-9be7-458d-95f6-5b7655c1c00b" d="M 70 260 Q 90 260 120 170 Q 150 80 170 80" x1="70" y1="260" x2="170" y2="85" fill="none" stroke="black" stroke-width="1"></path><path id="lineca7ce3d3-9be7-458d-95f6-5b7655c1c00bback" d="M 70 260 Q 90 260 120 170 Q 150 80 170 80" x1="70" y1="260" x2="170" y2="85" fill="none" stroke="gray" stroke-width="15" opacity="0"></path><path id="line7e3fbede-0424-4fbd-a80e-f4f2bdee25df" d="M 360 200 Q 340 200 315 140 Q 290 80 270 80" x1="360" y1="200" x2="270" y2="85" fill="none" stroke="black" stroke-width="1"></path><path id="line7e3fbede-0424-4fbd-a80e-f4f2bdee25dfback" d="M 360 200 Q 340 200 315 140 Q 290 80 270 80" x1="360" y1="200" x2="270" y2="85" fill="none" stroke="gray" stroke-width="15" opacity="0"></path><path id="line225d2097-d1d7-4bba-989a-52ed52c264d7" d="M 270 80 Q 290 80 315 190 Q 340 300 360 300" x1="270" y1="85" x2="360" y2="300" fill="none" stroke="black" stroke-width="1"></path><path id="line225d2097-d1d7-4bba-989a-52ed52c264d7back" d="M 270 80 Q 290 80 315 190 Q 340 300 360 300" x1="270" y1="85" x2="360" y2="300" fill="none" stroke="gray" stroke-width="15" opacity="0"></path><path id="line4ce8a084-68de-4810-8b2f-5414a10b81cd" d="M 270 80 Q 290 80 315 242.5 Q 340 405 360 405" x1="270" y1="85" x2="360" y2="405" fill="none" stroke="black" stroke-width="1"></path><path id="line4ce8a084-68de-4810-8b2f-5414a10b81cdback" d="M 270 80 Q 290 80 315 242.5 Q 340 405 360 405" x1="270" y1="85" x2="360" y2="405" fill="none" stroke="gray" stroke-width="15" opacity="0"></path><path id="linecfe36d27-605e-4fba-91b4-eb61bc685e90" d="M 70 360 Q 90 360 120 220 Q 150 80 170 80" x1="70" y1="360" x2="170" y2="85" fill="none" stroke="black" stroke-width="1"></path><path id="linecfe36d27-605e-4fba-91b4-eb61bc685e90back" d="M 70 360 Q 90 360 120 220 Q 150 80 170 80" x1="70" y1="360" x2="170" y2="85" fill="none" stroke="gray" stroke-width="15" opacity="0"></path><path id="lineffa640e2-733a-476e-a603-87fc03b42292" d="M 170 80 Q 150 80 120 275 Q 90 470 70 470" x1="170" y1="85" x2="70" y2="470" fill="none" stroke="black" stroke-width="1"></path><path id="lineffa640e2-733a-476e-a603-87fc03b42292back" d="M 170 80 Q 150 80 120 275 Q 90 470 70 470" x1="170" y1="85" x2="70" y2="470" fill="none" stroke="gray" stroke-width="15" opacity="0"></path><path id="line28c38608-5ec7-4d25-9e23-0d713d8f4356" d="M 70 160 Q 90 160 120 167.5 Q 150 175 170 175" x1="70" y1="160" x2="170" y2="175" fill="none" stroke="black" stroke-width="1"></path><path id="line28c38608-5ec7-4d25-9e23-0d713d8f4356back" d="M 70 160 Q 90 160 120 167.5 Q 150 175 170 175" x1="70" y1="160" x2="170" y2="175" fill="none" stroke="gray" stroke-width="15" opacity="0"></path><path id="line448b1f47-f2d7-4a69-9317-cfebb0ac8a5f" d="M 70 160 Q 90 160 120 197.5 Q 150 235 170 235" x1="70" y1="160" x2="170" y2="235" fill="none" stroke="black" stroke-width="1"></path><path id="line448b1f47-f2d7-4a69-9317-cfebb0ac8a5fback" d="M 70 160 Q 90 160 120 197.5 Q 150 235 170 235" x1="70" y1="160" x2="170" y2="235" fill="none" stroke="gray" stroke-width="15" opacity="0"></path><path id="linea891f07a-b55e-4f92-9781-aa62bed03128" d="M 70 160 Q 90 160 120 227.5 Q 150 295 170 295" x1="70" y1="160" x2="170" y2="295" fill="none" stroke="black" stroke-width="1"></path><path id="linea891f07a-b55e-4f92-9781-aa62bed03128back" d="M 70 160 Q 90 160 120 227.5 Q 150 295 170 295" x1="70" y1="160" x2="170" y2="295" fill="none" stroke="gray" stroke-width="15" opacity="0"></path><path id="linef1f4df5e-7469-4a20-a012-984c72e85861" d="M 360 100 Q 340 100 315 137.5 Q 290 175 270 175" x1="360" y1="100" x2="270" y2="175" fill="none" stroke="black" stroke-width="1"></path><path id="linef1f4df5e-7469-4a20-a012-984c72e85861back" d="M 360 100 Q 340 100 315 137.5 Q 290 175 270 175" x1="360" y1="100" x2="270" y2="175" fill="none" stroke="gray" stroke-width="15" opacity="0"></path><path id="lineb79c2d66-1db8-48ab-9228-35f78839da9a" d="M 360 100 Q 340 100 315 167.5 Q 290 235 270 235" x1="360" y1="100" x2="270" y2="235" fill="none" stroke="black" stroke-width="1"></path><path id="lineb79c2d66-1db8-48ab-9228-35f78839da9aback" d="M 360 100 Q 340 100 315 167.5 Q 290 235 270 235" x1="360" y1="100" x2="270" y2="235" fill="none" stroke="gray" stroke-width="15" opacity="0"></path><path id="line42c0f47a-ee28-46e5-b0bf-98e32fcd8369" d="M 360 100 Q 340 100 315 197.5 Q 290 295 270 295" x1="360" y1="100" x2="270" y2="295" fill="none" stroke="black" stroke-width="1"></path><path id="line42c0f47a-ee28-46e5-b0bf-98e32fcd8369back" d="M 360 100 Q 340 100 315 197.5 Q 290 295 270 295" x1="360" y1="100" x2="270" y2="295" fill="none" stroke="gray" stroke-width="15" opacity="0"></path><path id="line9be420d9-5e09-4f3b-a74f-b199b6970869" d="M 360 100 Q 340 100 315 227.5 Q 290 355 270 355" x1="360" y1="100" x2="270" y2="355" fill="none" stroke="black" stroke-width="1"></path><path id="line9be420d9-5e09-4f3b-a74f-b199b6970869back" d="M 360 100 Q 340 100 315 227.5 Q 290 355 270 355" x1="360" y1="100" x2="270" y2="355" fill="none" stroke="gray" stroke-width="15" opacity="0"></path><path id="linea791b744-607f-4641-877f-a50f29120bbf" d="M 360 100 Q 340 100 315 257.5 Q 290 415 270 415" x1="360" y1="100" x2="270" y2="415" fill="none" stroke="black" stroke-width="1"></path><path id="linea791b744-607f-4641-877f-a50f29120bbfback" d="M 360 100 Q 340 100 315 257.5 Q 290 415 270 415" x1="360" y1="100" x2="270" y2="415" fill="none" stroke="gray" stroke-width="15" opacity="0"></path><path id="line9e22e33e-1d65-4b2c-8561-07c9540a95b9" d="M 360 100 Q 340 100 315 292.5 Q 290 485 270 485" x1="360" y1="100" x2="270" y2="505" fill="none" stroke="black" stroke-width="1"></path><path id="line9e22e33e-1d65-4b2c-8561-07c9540a95b9back" d="M 360 100 Q 340 100 315 292.5 Q 290 485 270 485" x1="360" y1="100" x2="270" y2="505" fill="none" stroke="gray" stroke-width="15" opacity="0"></path><path id="line429b71d2-7323-4622-a231-473588684511" d="M 360 200 Q 340 200 315 187.5 Q 290 175 270 175" x1="360" y1="200" x2="270" y2="175" fill="none" stroke="black" stroke-width="1"></path><path id="line429b71d2-7323-4622-a231-473588684511back" d="M 360 200 Q 340 200 315 187.5 Q 290 175 270 175" x1="360" y1="200" x2="270" y2="175" fill="none" stroke="gray" stroke-width="15" opacity="0"></path><path id="line47636fb7-eb91-45c4-a1c4-7feb6332af16" d="M 360 200 Q 340 200 315 217.5 Q 290 235 270 235" x1="360" y1="200" x2="270" y2="235" fill="none" stroke="black" stroke-width="1"></path><path id="line47636fb7-eb91-45c4-a1c4-7feb6332af16back" d="M 360 200 Q 340 200 315 217.5 Q 290 235 270 235" x1="360" y1="200" x2="270" y2="235" fill="none" stroke="gray" stroke-width="15" opacity="0"></path><path id="linecd3bb9d5-936d-46bf-989f-01f99f8f6212" d="M 360 200 Q 340 200 315 247.5 Q 290 295 270 295" x1="360" y1="200" x2="270" y2="295" fill="none" stroke="black" stroke-width="1"></path><path id="linecd3bb9d5-936d-46bf-989f-01f99f8f6212back" d="M 360 200 Q 340 200 315 247.5 Q 290 295 270 295" x1="360" y1="200" x2="270" y2="295" fill="none" stroke="gray" stroke-width="15" opacity="0"></path><path id="line9368de05-5b1e-4e2c-b355-fa6cee06126d" d="M 360 200 Q 340 200 315 277.5 Q 290 355 270 355" x1="360" y1="200" x2="270" y2="355" fill="none" stroke="black" stroke-width="1"></path><path id="line9368de05-5b1e-4e2c-b355-fa6cee06126dback" d="M 360 200 Q 340 200 315 277.5 Q 290 355 270 355" x1="360" y1="200" x2="270" y2="355" fill="none" stroke="gray" stroke-width="15" opacity="0"></path><path id="line6c7d3b82-8cb4-454e-b6a1-6d58c5967f76" d="M 360 200 Q 340 200 315 307.5 Q 290 415 270 415" x1="360" y1="200" x2="270" y2="415" fill="none" stroke="black" stroke-width="1"></path><path id="line6c7d3b82-8cb4-454e-b6a1-6d58c5967f76back" d="M 360 200 Q 340 200 315 307.5 Q 290 415 270 415" x1="360" y1="200" x2="270" y2="415" fill="none" stroke="gray" stroke-width="15" opacity="0"></path><path id="line9c0995ca-2acc-4887-b272-f26b63e45673" d="M 360 200 Q 340 200 315 342.5 Q 290 485 270 485" x1="360" y1="200" x2="270" y2="505" fill="none" stroke="black" stroke-width="1"></path><path id="line9c0995ca-2acc-4887-b272-f26b63e45673back" d="M 360 200 Q 340 200 315 342.5 Q 290 485 270 485" x1="360" y1="200" x2="270" y2="505" fill="none" stroke="gray" stroke-width="15" opacity="0"></path><path id="linea38014b5-8d07-498f-99ab-891f214b9a84" d="M 360 300 Q 340 300 315 190 Q 290 80 270 80" x1="360" y1="300" x2="270" y2="85" fill="none" stroke="black" stroke-width="1"></path><path id="linea38014b5-8d07-498f-99ab-891f214b9a84back" d="M 360 300 Q 340 300 315 190 Q 290 80 270 80" x1="360" y1="300" x2="270" y2="85" fill="none" stroke="gray" stroke-width="15" opacity="0"></path><path id="linef3101718-edb3-4a66-8283-67cc48996409" d="M 360 300 Q 340 300 315 237.5 Q 290 175 270 175" x1="360" y1="300" x2="270" y2="175" fill="none" stroke="black" stroke-width="1"></path><path id="linef3101718-edb3-4a66-8283-67cc48996409back" d="M 360 300 Q 340 300 315 237.5 Q 290 175 270 175" x1="360" y1="300" x2="270" y2="175" fill="none" stroke="gray" stroke-width="15" opacity="0"></path><path id="line6b157206-32eb-494c-844e-8d64effef34d" d="M 360 300 Q 340 300 315 267.5 Q 290 235 270 235" x1="360" y1="300" x2="270" y2="235" fill="none" stroke="black" stroke-width="1"></path><path id="line6b157206-32eb-494c-844e-8d64effef34dback" d="M 360 300 Q 340 300 315 267.5 Q 290 235 270 235" x1="360" y1="300" x2="270" y2="235" fill="none" stroke="gray" stroke-width="15" opacity="0"></path><path id="line06c19f33-61dc-4c99-b7d4-c46861400d02" d="M 360 300 Q 340 300 315 297.5 Q 290 295 270 295" x1="360" y1="300" x2="270" y2="295" fill="none" stroke="black" stroke-width="1"></path><path id="line06c19f33-61dc-4c99-b7d4-c46861400d02back" d="M 360 300 Q 340 300 315 297.5 Q 290 295 270 295" x1="360" y1="300" x2="270" y2="295" fill="none" stroke="gray" stroke-width="15" opacity="0"></path><path id="line29da74b2-c3a6-4743-b5e1-8a02c0359b9d" d="M 360 300 Q 340 300 315 297.5 Q 290 295 270 295" x1="360" y1="300" x2="270" y2="295" fill="none" stroke="black" stroke-width="1"></path><path id="line29da74b2-c3a6-4743-b5e1-8a02c0359b9dback" d="M 360 300 Q 340 300 315 297.5 Q 290 295 270 295" x1="360" y1="300" x2="270" y2="295" fill="none" stroke="gray" stroke-width="15" opacity="0"></path><path id="line39a61d1e-6572-4d8d-9d9f-1fd821b9aff4" d="M 360 300 Q 340 300 315 327.5 Q 290 355 270 355" x1="360" y1="300" x2="270" y2="355" fill="none" stroke="black" stroke-width="1"></path><path id="line39a61d1e-6572-4d8d-9d9f-1fd821b9aff4back" d="M 360 300 Q 340 300 315 327.5 Q 290 355 270 355" x1="360" y1="300" x2="270" y2="355" fill="none" stroke="gray" stroke-width="15" opacity="0"></path><path id="linec33c7bbb-73b9-4245-9346-6efd53d3667c" d="M 360 300 Q 340 300 315 357.5 Q 290 415 270 415" x1="360" y1="300" x2="270" y2="415" fill="none" stroke="black" stroke-width="1"></path><path id="linec33c7bbb-73b9-4245-9346-6efd53d3667cback" d="M 360 300 Q 340 300 315 357.5 Q 290 415 270 415" x1="360" y1="300" x2="270" y2="415" fill="none" stroke="gray" stroke-width="15" opacity="0"></path><path id="line4711ccf5-fd97-4217-9eb6-7bb0b691dfc9" d="M 360 300 Q 340 300 315 392.5 Q 290 485 270 485" x1="360" y1="300" x2="270" y2="505" fill="none" stroke="black" stroke-width="1"></path><path id="line4711ccf5-fd97-4217-9eb6-7bb0b691dfc9back" d="M 360 300 Q 340 300 315 392.5 Q 290 485 270 485" x1="360" y1="300" x2="270" y2="505" fill="none" stroke="gray" stroke-width="15" opacity="0"></path><path id="line6eff0b51-3a66-440b-ba85-102a9b91a3bf" d="M 360 405 Q 340 405 315 290 Q 290 175 270 175" x1="360" y1="405" x2="270" y2="175" fill="none" stroke="black" stroke-width="1"></path><path id="line6eff0b51-3a66-440b-ba85-102a9b91a3bfback" d="M 360 405 Q 340 405 315 290 Q 290 175 270 175" x1="360" y1="405" x2="270" y2="175" fill="none" stroke="gray" stroke-width="15" opacity="0"></path><path id="linee81c4702-0b01-45e4-8e45-46d9fff259ab" d="M 360 405 Q 340 405 315 242.5 Q 290 80 270 80" x1="360" y1="405" x2="270" y2="85" fill="none" stroke="black" stroke-width="1"></path><path id="linee81c4702-0b01-45e4-8e45-46d9fff259abback" d="M 360 405 Q 340 405 315 242.5 Q 290 80 270 80" x1="360" y1="405" x2="270" y2="85" fill="none" stroke="gray" stroke-width="15" opacity="0"></path><path id="linec5882fd3-a5f4-4e06-8543-34fd6135894a" d="M 360 405 Q 340 405 315 320 Q 290 235 270 235" x1="360" y1="405" x2="270" y2="235" fill="none" stroke="black" stroke-width="1"></path><path id="linec5882fd3-a5f4-4e06-8543-34fd6135894aback" d="M 360 405 Q 340 405 315 320 Q 290 235 270 235" x1="360" y1="405" x2="270" y2="235" fill="none" stroke="gray" stroke-width="15" opacity="0"></path><path id="line86994b9e-b7c8-41c2-bba3-39ab3860475b" d="M 360 405 Q 340 405 315 350 Q 290 295 270 295" x1="360" y1="405" x2="270" y2="295" fill="none" stroke="black" stroke-width="1"></path><path id="line86994b9e-b7c8-41c2-bba3-39ab3860475bback" d="M 360 405 Q 340 405 315 350 Q 290 295 270 295" x1="360" y1="405" x2="270" y2="295" fill="none" stroke="gray" stroke-width="15" opacity="0"></path><path id="line0685aca3-965a-4c31-89e1-77b4c93cad21" d="M 360 405 Q 340 405 315 380 Q 290 355 270 355" x1="360" y1="405" x2="270" y2="355" fill="none" stroke="black" stroke-width="1"></path><path id="line0685aca3-965a-4c31-89e1-77b4c93cad21back" d="M 360 405 Q 340 405 315 380 Q 290 355 270 355" x1="360" y1="405" x2="270" y2="355" fill="none" stroke="gray" stroke-width="15" opacity="0"></path><path id="linef603ba2a-55ca-42f0-a190-58fbf249eb4c" d="M 360 405 Q 340 405 315 410 Q 290 415 270 415" x1="360" y1="405" x2="270" y2="415" fill="none" stroke="black" stroke-width="1"></path><path id="linef603ba2a-55ca-42f0-a190-58fbf249eb4cback" d="M 360 405 Q 340 405 315 410 Q 290 415 270 415" x1="360" y1="405" x2="270" y2="415" fill="none" stroke="gray" stroke-width="15" opacity="0"></path><path id="line659fc7c4-e74a-4786-b425-fc518f2c208c" d="M 360 405 Q 340 405 315 445 Q 290 485 270 485" x1="360" y1="405" x2="270" y2="505" fill="none" stroke="black" stroke-width="1"></path><path id="line659fc7c4-e74a-4786-b425-fc518f2c208cback" d="M 360 405 Q 340 405 315 445 Q 290 485 270 485" x1="360" y1="405" x2="270" y2="505" fill="none" stroke="gray" stroke-width="15" opacity="0"></path><path id="lineebf0f6e6-8653-40cc-b62d-9c04daf7c717" d="M 70 160 Q 90 160 120 257.5 Q 150 355 170 355" x1="70" y1="160" x2="170" y2="355" fill="none" stroke="black" stroke-width="1"></path><path id="lineebf0f6e6-8653-40cc-b62d-9c04daf7c717back" d="M 70 160 Q 90 160 120 257.5 Q 150 355 170 355" x1="70" y1="160" x2="170" y2="355" fill="none" stroke="gray" stroke-width="15" opacity="0"></path><path id="line73fbf305-e206-4eb4-942e-5bfdb7c534a1" d="M 70 160 Q 90 160 120 287.5 Q 150 415 170 415" x1="70" y1="160" x2="170" y2="415" fill="none" stroke="black" stroke-width="1"></path><path id="line73fbf305-e206-4eb4-942e-5bfdb7c534a1back" d="M 70 160 Q 90 160 120 287.5 Q 150 415 170 415" x1="70" y1="160" x2="170" y2="415" fill="none" stroke="gray" stroke-width="15" opacity="0"></path><path id="linef2c9b823-5672-4868-853e-82ff09271bef" d="M 70 160 Q 90 160 120 322.5 Q 150 485 170 485" x1="70" y1="160" x2="170" y2="505" fill="none" stroke="black" stroke-width="1"></path><path id="linef2c9b823-5672-4868-853e-82ff09271befback" d="M 70 160 Q 90 160 120 322.5 Q 150 485 170 485" x1="70" y1="160" x2="170" y2="505" fill="none" stroke="gray" stroke-width="15" opacity="0"></path><path id="line2535350f-2ea7-4169-95c3-dbbca013f942" d="M 70 260 Q 90 260 120 217.5 Q 150 175 170 175" x1="70" y1="260" x2="170" y2="175" fill="none" stroke="black" stroke-width="1"></path><path id="line2535350f-2ea7-4169-95c3-dbbca013f942back" d="M 70 260 Q 90 260 120 217.5 Q 150 175 170 175" x1="70" y1="260" x2="170" y2="175" fill="none" stroke="gray" stroke-width="15" opacity="0"></path><path id="lined63d960b-7ae1-4e27-aa9d-47dad7f0a680" d="M 70 260 Q 90 260 120 247.5 Q 150 235 170 235" x1="70" y1="260" x2="170" y2="235" fill="none" stroke="black" stroke-width="1"></path><path id="lined63d960b-7ae1-4e27-aa9d-47dad7f0a680back" d="M 70 260 Q 90 260 120 247.5 Q 150 235 170 235" x1="70" y1="260" x2="170" y2="235" fill="none" stroke="gray" stroke-width="15" opacity="0"></path><path id="lineb81d0b8f-d0c4-47fa-9c27-9c15558a32f2" d="M 70 260 Q 90 260 120 277.5 Q 150 295 170 295" x1="70" y1="260" x2="170" y2="295" fill="none" stroke="black" stroke-width="1"></path><path id="lineb81d0b8f-d0c4-47fa-9c27-9c15558a32f2back" d="M 70 260 Q 90 260 120 277.5 Q 150 295 170 295" x1="70" y1="260" x2="170" y2="295" fill="none" stroke="gray" stroke-width="15" opacity="0"></path><path id="lined7fb3271-c597-4caf-911d-c0491419ae2f" d="M 70 260 Q 90 260 120 307.5 Q 150 355 170 355" x1="70" y1="260" x2="170" y2="355" fill="none" stroke="black" stroke-width="1"></path><path id="lined7fb3271-c597-4caf-911d-c0491419ae2fback" d="M 70 260 Q 90 260 120 307.5 Q 150 355 170 355" x1="70" y1="260" x2="170" y2="355" fill="none" stroke="gray" stroke-width="15" opacity="0"></path><path id="line974eda6e-3c72-470a-9895-c5bf2cb2a455" d="M 70 260 Q 90 260 120 337.5 Q 150 415 170 415" x1="70" y1="260" x2="170" y2="415" fill="none" stroke="black" stroke-width="1"></path><path id="line974eda6e-3c72-470a-9895-c5bf2cb2a455back" d="M 70 260 Q 90 260 120 337.5 Q 150 415 170 415" x1="70" y1="260" x2="170" y2="415" fill="none" stroke="gray" stroke-width="15" opacity="0"></path><path id="line7daae607-56f6-4760-b9b9-4eb111cc6256" d="M 70 260 Q 90 260 120 372.5 Q 150 485 170 485" x1="70" y1="260" x2="170" y2="505" fill="none" stroke="black" stroke-width="1"></path><path id="line7daae607-56f6-4760-b9b9-4eb111cc6256back" d="M 70 260 Q 90 260 120 372.5 Q 150 485 170 485" x1="70" y1="260" x2="170" y2="505" fill="none" stroke="gray" stroke-width="15" opacity="0"></path><path id="line0025c3e4-2289-4ac9-91f9-7bab8150986b" d="M 70 360 Q 90 360 120 267.5 Q 150 175 170 175" x1="70" y1="360" x2="170" y2="175" fill="none" stroke="black" stroke-width="1"></path><path id="line0025c3e4-2289-4ac9-91f9-7bab8150986bback" d="M 70 360 Q 90 360 120 267.5 Q 150 175 170 175" x1="70" y1="360" x2="170" y2="175" fill="none" stroke="gray" stroke-width="15" opacity="0"></path><path id="linee4f62f2d-c9a2-4904-ab88-f2f9f4c1afc3" d="M 70 360 Q 90 360 120 297.5 Q 150 235 170 235" x1="70" y1="360" x2="170" y2="235" fill="none" stroke="black" stroke-width="1"></path><path id="linee4f62f2d-c9a2-4904-ab88-f2f9f4c1afc3back" d="M 70 360 Q 90 360 120 297.5 Q 150 235 170 235" x1="70" y1="360" x2="170" y2="235" fill="none" stroke="gray" stroke-width="15" opacity="0"></path><path id="line96ce40cd-d3fa-43a7-9b97-6fe127de9618" d="M 70 360 Q 90 360 120 327.5 Q 150 295 170 295" x1="70" y1="360" x2="170" y2="295" fill="none" stroke="black" stroke-width="1"></path><path id="line96ce40cd-d3fa-43a7-9b97-6fe127de9618back" d="M 70 360 Q 90 360 120 327.5 Q 150 295 170 295" x1="70" y1="360" x2="170" y2="295" fill="none" stroke="gray" stroke-width="15" opacity="0"></path><path id="linedb07dd55-bf00-439a-9c3d-2e1d6a6f450d" d="M 70 360 Q 90 360 120 357.5 Q 150 355 170 355" x1="70" y1="360" x2="170" y2="355" fill="none" stroke="black" stroke-width="1"></path><path id="linedb07dd55-bf00-439a-9c3d-2e1d6a6f450dback" d="M 70 360 Q 90 360 120 357.5 Q 150 355 170 355" x1="70" y1="360" x2="170" y2="355" fill="none" stroke="gray" stroke-width="15" opacity="0"></path><path id="linec7043c3c-8214-4a3e-aff2-9c6c3c82b9ed" d="M 70 360 Q 90 360 120 387.5 Q 150 415 170 415" x1="70" y1="360" x2="170" y2="415" fill="none" stroke="black" stroke-width="1"></path><path id="linec7043c3c-8214-4a3e-aff2-9c6c3c82b9edback" d="M 70 360 Q 90 360 120 387.5 Q 150 415 170 415" x1="70" y1="360" x2="170" y2="415" fill="none" stroke="gray" stroke-width="15" opacity="0"></path><path id="line77d1c50c-26bb-4088-b6d9-12b641b9e823" d="M 70 360 Q 90 360 120 422.5 Q 150 485 170 485" x1="70" y1="360" x2="170" y2="505" fill="none" stroke="black" stroke-width="1"></path><path id="line77d1c50c-26bb-4088-b6d9-12b641b9e823back" d="M 70 360 Q 90 360 120 422.5 Q 150 485 170 485" x1="70" y1="360" x2="170" y2="505" fill="none" stroke="gray" stroke-width="15" opacity="0"></path><path id="line9ab2238b-d621-48ed-bffa-b85aea0b00fd" d="M 70 470 Q 90 470 120 322.5 Q 150 175 170 175" x1="70" y1="470" x2="170" y2="175" fill="none" stroke="black" stroke-width="1"></path><path id="line9ab2238b-d621-48ed-bffa-b85aea0b00fdback" d="M 70 470 Q 90 470 120 322.5 Q 150 175 170 175" x1="70" y1="470" x2="170" y2="175" fill="none" stroke="gray" stroke-width="15" opacity="0"></path><path id="linef624f78b-b18e-4326-9c56-e4b725b389bc" d="M 70 470 Q 90 470 120 352.5 Q 150 235 170 235" x1="70" y1="470" x2="170" y2="235" fill="none" stroke="black" stroke-width="1"></path><path id="linef624f78b-b18e-4326-9c56-e4b725b389bcback" d="M 70 470 Q 90 470 120 352.5 Q 150 235 170 235" x1="70" y1="470" x2="170" y2="235" fill="none" stroke="gray" stroke-width="15" opacity="0"></path><path id="lineaedc22e2-f161-46a9-8e60-098b907b515b" d="M 70 470 Q 90 470 120 382.5 Q 150 295 170 295" x1="70" y1="470" x2="170" y2="295" fill="none" stroke="black" stroke-width="1"></path><path id="lineaedc22e2-f161-46a9-8e60-098b907b515bback" d="M 70 470 Q 90 470 120 382.5 Q 150 295 170 295" x1="70" y1="470" x2="170" y2="295" fill="none" stroke="gray" stroke-width="15" opacity="0"></path><path id="line390232d4-49dc-4adb-8361-5ffab76ccb7a" d="M 70 470 Q 90 470 120 412.5 Q 150 355 170 355" x1="70" y1="470" x2="170" y2="355" fill="none" stroke="black" stroke-width="1"></path><path id="line390232d4-49dc-4adb-8361-5ffab76ccb7aback" d="M 70 470 Q 90 470 120 412.5 Q 150 355 170 355" x1="70" y1="470" x2="170" y2="355" fill="none" stroke="gray" stroke-width="15" opacity="0"></path><path id="line830f283d-7f2a-46f0-bbed-3e3716664b8c" d="M 70 470 Q 90 470 120 442.5 Q 150 415 170 415" x1="70" y1="470" x2="170" y2="415" fill="none" stroke="black" stroke-width="1"></path><path id="line830f283d-7f2a-46f0-bbed-3e3716664b8cback" d="M 70 470 Q 90 470 120 442.5 Q 150 415 170 415" x1="70" y1="470" x2="170" y2="415" fill="none" stroke="gray" stroke-width="15" opacity="0"></path><path id="line7b7e15a5-6118-4dca-956a-db9ffe0dca7f" d="M 70 470 Q 90 470 120 477.5 Q 150 485 170 485" x1="70" y1="470" x2="170" y2="505" fill="none" stroke="black" stroke-width="1"></path><path id="line7b7e15a5-6118-4dca-956a-db9ffe0dca7fback" d="M 70 470 Q 90 470 120 477.5 Q 150 485 170 485" x1="70" y1="470" x2="170" y2="505" fill="none" stroke="gray" stroke-width="15" opacity="0"></path><polyline id="linea955a4ce-62ea-42b7-a5dd-826ccfd9d84d" points="60,35  90,35  90,35  155,35  155,35  220,35  220,35  220,35  220,50" fill="none" stroke="black" stroke-width="1"></polyline><polyline id="linea955a4ce-62ea-42b7-a5dd-826ccfd9d84dback" points="60,35  90,35  90,35  155,35  155,35  220,35  220,35  220,35  220,50" fill="none" stroke="gray" stroke-width="15" opacity="0"></polyline><rect id="linea955a4ce-62ea-42b7-a5dd-826ccfd9d84dtextback" x="NaN" y="25.888888835906982" height="NaN" width="NaN" fill="none" stroke-width="0"></rect><text id="linea955a4ce-62ea-42b7-a5dd-826ccfd9d84dtext" x="130" y="25.888888835906982" fill="black" font-size="12" font-family="Arial" font-weight="normal" text-anchor="middle"><tspan x="155" dy="14.222222328186035"> </tspan></text><polygon id="linehead5f51c449-092e-4481-bbbb-f92b9fa5deae" points=" 220,40  215,40  220,50  225,40  220,40 " fill="black" stroke="black" fill-rule="nonzero"></polygon><rect id="textonly4fc1cfd8-c245-4884-b343-b93b3742ea60" x="230" y="10" height="30" width="70" rx="0" ry="0" fill="white" fill-opacity="1" stroke-opacity="1" stroke="transparent"></rect><text id="textonly4fc1cfd8-c245-4884-b343-b93b3742ea60Text" x="230" y="8.777777671813965" fill="black" font-size="12" font-family="Arial" font-weight="normal" text-anchor="middle" data-text="System
(Smart-IDE)"><tspan x="265" dy="14.222222328186035">System </tspan><tspan x="265" dy="14.222222328186035">(Smart-IDE) </tspan></text><rect id="760aff90-55d3-4276-aef9-0e1c2d052d80" x="225" y="5" height="40" width="80" stroke-width="1" stroke-dasharray="3,1" fill="none" stroke="none"></rect><rect id="textonly5b8c6cde-b8bc-4fa1-aa80-442b0400229f" x="185" y="105" height="30" width="70" rx="0" ry="0" fill="white" fill-opacity="1" stroke-opacity="1" stroke="transparent"></rect><text id="textonly5b8c6cde-b8bc-4fa1-aa80-442b0400229fText" x="185" y="103.77777767181396" fill="black" font-size="12" font-family="Arial" font-weight="normal" text-anchor="middle"><tspan x="220" dy="14.222222328186035">Collaborative </tspan><tspan x="220" dy="14.222222328186035">Environment </tspan></text><rect id="598b3d65-60f5-445b-b4eb-0edaa5ed0a9c" x="180" y="100" height="40" width="80" stroke-width="1" stroke-dasharray="3,1" fill="none" stroke="none"></rect><polyline id="line6b05b12b-9091-4862-add1-852372f1b5ad" points="220,520  220,530  220,530  290,530  290,530  340,530  340,530  360,530  " fill="none" stroke="black" stroke-width="1"></polyline><polyline id="line6b05b12b-9091-4862-add1-852372f1b5adback" points="220,520  220,530  220,530  290,530  290,530  340,530  340,530  360,530  " fill="none" stroke="gray" stroke-width="15" opacity="0"></polyline><rect id="line6b05b12b-9091-4862-add1-852372f1b5adtextback" x="NaN" y="520.888888835907" height="NaN" width="NaN" fill="none" stroke-width="0"></rect><text id="line6b05b12b-9091-4862-add1-852372f1b5adtext" x="265" y="520.888888835907" fill="black" font-size="12" font-family="Arial" font-weight="normal" text-anchor="middle"><tspan x="290" dy="14.222222328186035"> </tspan></text><polygon id="linehead91b54ee5-5c0a-49fa-a029-74b557cb670f" points=" 350,530  350,525  360,530  350,535  350,530 " fill="black" stroke="black" fill-rule="nonzero"></polygon><text x="565" y="1090" fill="#252526" font-size="14" font-family="Arial" font-weight="bold" opacity="1">Flowdia Diagrams Lite Version</text></svg>
